<svg width="183" height="25" fill="none" xmlns="http://www.w3.org/2000/svg"><path d="M.14 24L7.404.96h5.648L20.316 24h-3.968L9.756 3.328h.864L4.108 24H.14zm4.048-4.992v-3.6h12.096v3.6H4.188zM23.208 24V.96h9.137c1.557 0 2.832.315 3.824.944 1.002.619 1.744 1.413 2.224 2.384.49.97.736 1.973.736 3.008 0 1.27-.304 2.347-.912 3.232a4.379 4.379 0 0 1-2.448 1.792v-.8c1.45.33 2.55 1.019 3.296 2.064.757 1.045 1.136 2.235 1.136 3.568 0 1.365-.262 2.56-.784 3.584-.523 1.024-1.302 1.824-2.336 2.4-1.024.576-2.294.864-3.808.864H23.209zm3.905-3.632h5.68c.672 0 1.274-.133 1.808-.4.533-.277.95-.661 1.248-1.152.31-.501.464-1.093.464-1.776 0-.619-.134-1.173-.4-1.664a2.93 2.93 0 0 0-1.168-1.168c-.512-.299-1.126-.448-1.84-.448h-5.792v6.608zm0-10.208h5.184a3.36 3.36 0 0 0 1.488-.32 2.47 2.47 0 0 0 1.04-.944c.256-.416.384-.928.384-1.536 0-.8-.256-1.467-.768-2-.512-.533-1.227-.8-2.144-.8h-5.184v5.6zM48.307 24V4.576h-7.456V.96H59.62v3.616h-7.456V24h-3.856zm23.614.48c-2.303 0-4.277-.501-5.92-1.504-1.642-1.013-2.906-2.421-3.792-4.224-.874-1.803-1.312-3.893-1.312-6.272 0-2.379.438-4.47 1.313-6.272C63.094 4.405 64.358 3.003 66 2 67.644.987 69.618.48 71.921.48c2.304 0 4.278.507 5.92 1.52 1.654 1.003 2.918 2.405 3.793 4.208.885 1.803 1.328 3.893 1.328 6.272 0 2.379-.443 4.47-1.329 6.272-.874 1.803-2.138 3.21-3.791 4.224-1.643 1.003-3.617 1.504-5.92 1.504zm0-3.632c1.547.01 2.832-.33 3.856-1.024 1.035-.693 1.808-1.67 2.32-2.928.523-1.259.785-2.73.785-4.416 0-1.685-.262-3.147-.785-4.384-.511-1.248-1.285-2.219-2.32-2.912-1.023-.693-2.309-1.05-3.856-1.072-1.546-.01-2.832.33-3.856 1.024-1.023.693-1.797 1.67-2.32 2.928-.511 1.259-.767 2.73-.767 4.416 0 1.685.256 3.152.768 4.4.511 1.237 1.28 2.203 2.303 2.896 1.035.693 2.326 1.05 3.872 1.072z" fill="#005BD1"/><path d="M92.274 24V3.216h-8.048V.96h18.448v2.256h-8.048V24h-2.352zm22.294.48c-2.293 0-4.229-.507-5.808-1.52-1.579-1.024-2.773-2.437-3.584-4.24-.811-1.803-1.216-3.883-1.216-6.24s.405-4.437 1.216-6.24c.811-1.803 2.005-3.21 3.584-4.224C110.339.992 112.275.48 114.568.48c2.304 0 4.24.512 5.808 1.536 1.579 1.013 2.773 2.421 3.584 4.224.821 1.803 1.232 3.883 1.232 6.24s-.411 4.437-1.232 6.24c-.811 1.803-2.005 3.216-3.584 4.24-1.568 1.013-3.504 1.52-5.808 1.52zm0-2.256c1.803 0 3.307-.41 4.512-1.232 1.205-.821 2.107-1.963 2.704-3.424.608-1.472.912-3.168.912-5.088s-.304-3.61-.912-5.072c-.597-1.461-1.499-2.603-2.704-3.424-1.205-.821-2.709-1.237-4.512-1.248-1.803 0-3.301.41-4.496 1.232-1.195.821-2.096 1.968-2.704 3.44-.597 1.461-.901 3.152-.912 5.072-.011 1.92.283 3.61.88 5.072.608 1.45 1.515 2.592 2.72 3.424 1.205.821 2.709 1.237 4.512 1.248zM128.396 24V.96h8.896c.224 0 .475.01.752.032.288.01.576.043.864.096 1.206.181 2.224.603 3.056 1.264a6.101 6.101 0 0 1 1.904 2.464c.438.992.656 2.09.656 3.296 0 1.195-.218 2.288-.656 3.28a6.362 6.362 0 0 1-1.92 2.48c-.832.65-1.845 1.067-3.04 1.248a11.848 11.848 0 0 1-1.616.128h-6.544V24h-2.352zm2.352-10.992h6.48c.192 0 .416-.01.672-.032.256-.021.507-.059.752-.112.79-.17 1.435-.496 1.936-.976a4.42 4.42 0 0 0 1.136-1.712 5.67 5.67 0 0 0 .384-2.064c0-.715-.128-1.403-.384-2.064a4.4 4.4 0 0 0-1.136-1.728c-.501-.48-1.146-.805-1.936-.976a4.39 4.39 0 0 0-.752-.096 8.222 8.222 0 0 0-.672-.032h-6.48v9.792zM147.709 24V.96h14.4v2.256h-12.048V24h-2.352zm34.393 0h-2.368V5.104L167.046 24h-2.368V.96h2.368v18.88L179.734.96h2.368V24z" fill="#09121F"/></svg>