<svg width="48" height="48" fill="none" xmlns="http://www.w3.org/2000/svg"><path fill-rule="evenodd" clip-rule="evenodd" d="M8 4a4 4 0 0 0-4 4v32a4 4 0 0 0 4 4h32a4 4 0 0 0 4-4V8a4 4 0 0 0-4-4H8zm9.598 12.044a3.559 3.559 0 0 0-3.556-3.556 3.559 3.559 0 0 0-3.557 3.556 3.559 3.559 0 0 0 3.556 3.557 3.559 3.559 0 0 0 3.557-3.557zm19.686 16.358A2.176 2.176 0 0 1 35.1 34.57H12.9a2.176 2.176 0 0 1-2.183-2.168c0-.46.143-.886.389-1.234h-.003l3.428-5.462a2.145 2.145 0 0 1 1.8-.971c.56 0 1.068.21 1.45.562l3.857 3.791 5.42-8.27h.003a2.212 2.212 0 0 1 3.682.368L36.98 31.3c.031.049.057.1.083.152l.008.011h-.002c.137.286.214.603.214.94z" fill="#ED0A34"/></svg>