<svg width="48" height="48" fill="none" xmlns="http://www.w3.org/2000/svg"><path fill-rule="evenodd" clip-rule="evenodd" d="M8 4a4 4 0 0 0-4 4v32a4 4 0 0 0 4 4h32a4 4 0 0 0 4-4V8a4 4 0 0 0-4-4H8zm11.648 26.28c.195.133.506.2.932.2h3.252c.902 0 1.73-.164 2.485-.491a6.35 6.35 0 0 0 2.01-1.347 6.232 6.232 0 0 0 1.333-2.038 6.77 6.77 0 0 0 .476-2.547c0-.897-.159-1.729-.476-2.493a6.077 6.077 0 0 0-1.333-2.001 6.157 6.157 0 0 0-1.992-1.328 6.289 6.289 0 0 0-2.448-.473H20.6c-.451-.013-.774.048-.969.181a.846.846 0 0 0-.365.528 2.838 2.838 0 0 0-.073.655v9.953c0 .243.03.473.091.691a.957.957 0 0 0 .365.51zm2.32-2.584h1.92a3.47 3.47 0 0 0 1.771-.455 3.47 3.47 0 0 0 1.243-1.273c.304-.534.456-1.147.456-1.838 0-.691-.152-1.31-.456-1.856A3.295 3.295 0 0 0 25.659 21c-.523-.315-1.12-.473-1.79-.473h-1.9v7.17zM8.82 30.28c.195.133.518.2.969.2.45 0 .773-.067.968-.2a.843.843 0 0 0 .365-.51c.049-.218.073-.442.073-.673v-2.383h2.339c.511 0 1.03-.091 1.553-.273a4.929 4.929 0 0 0 1.443-.837 4.12 4.12 0 0 0 1.078-1.401c.28-.558.42-1.207.42-1.947 0-.752-.14-1.407-.42-1.965a4.12 4.12 0 0 0-1.078-1.401 4.289 4.289 0 0 0-1.443-.855 4.553 4.553 0 0 0-1.535-.273H9.807c-.45 0-.774.066-.968.2a.846.846 0 0 0-.366.527 2.841 2.841 0 0 0-.073.655v9.935c0 .23.024.455.073.673a.869.869 0 0 0 .347.528zm2.375-6.332h2.357c.268 0 .53-.055.786-.164a1.55 1.55 0 0 0 .658-.564c.182-.255.274-.582.274-.982 0-.34-.073-.637-.22-.892a1.555 1.555 0 0 0-.62-.6 1.779 1.779 0 0 0-.896-.219h-2.339v3.42zM32 30.298c.195.121.511.182.95.182.463 0 .785-.06.968-.182a.842.842 0 0 0 .366-.51c.048-.218.073-.442.073-.673v-3.839h3.727c.256 0 .475-.018.657-.054a.687.687 0 0 0 .457-.292c.11-.17.165-.448.165-.837 0-.4-.055-.685-.165-.855a.67.67 0 0 0-.457-.309 3.306 3.306 0 0 0-.639-.055h-3.745v-2.347h3.597c.244 0 .47-.018.676-.054a.85.85 0 0 0 .53-.364c.134-.194.201-.51.201-.946 0-.461-.067-.789-.201-.983a.712.712 0 0 0-.493-.346 2.962 2.962 0 0 0-.676-.072h-4.986c-.536 0-.908.097-1.115.29-.207.195-.31.559-.31 1.092v9.953c0 .23.018.455.054.673a.85.85 0 0 0 .366.528z" fill="#ED0A34"/></svg>