<svg xmlns="http://www.w3.org/2000/svg" width="143" height="40" fill="none"><path fill="#fff" d="M0 0h143v40H0z"/><path fill-rule="evenodd" clip-rule="evenodd" d="M16.3 37.01l-9.19-8.883-5.994 5.923a1.844 1.844 0 0 0 1.472 2.96H16.3z" fill="#FF4F12"/><path fill-rule="evenodd" clip-rule="evenodd" d="M22.228 13.323L8.891 0 1.445 7.749A5.179 5.179 0 0 0 0 11.337v22.712a2.962 2.962 0 0 0 2.964 2.96 1.835 1.835 0 0 1-1.296-3.133" fill="#7B61FF"/><path fill-rule="evenodd" clip-rule="evenodd" d="M117.269 23.075h-3.207l-3.831 3.87v-3.87h-2.712V33.74h2.712v-4.408l3.896 4.408h3.272l-5.037-5.72 4.907-4.945zM31.21 25.844h-3.918v-4.73h3.917c1.98 0 2.884.945 2.884 2.364 0 1.42-.904 2.366-2.884 2.366zm.085-7.268h-6.844v15.051h2.84v-5.246h4.004c3.401 0 5.64-1.742 5.64-4.903 0-3.16-2.239-4.902-5.64-4.902zm12.052 12.928c-1.592 0-3.077-1.14-3.077-3.097 0-1.956 1.485-3.096 3.077-3.096 1.593 0 3.078 1.14 3.078 3.096 0 1.957-1.485 3.097-3.078 3.097zm0-8.73c-2.927 0-5.833 1.892-5.833 5.633 0 3.742 2.906 5.634 5.833 5.634 2.928 0 5.834-1.892 5.834-5.634 0-3.74-2.906-5.633-5.834-5.633zm12.757 8.73c-1.636 0-2.84-1.183-2.84-3.097 0-1.892 1.247-3.096 2.84-3.096.969 0 1.808.452 2.476 1.462l2.324-1.333c-.775-1.656-2.454-2.666-4.778-2.666-3.035 0-5.618 2.236-5.618 5.633 0 3.398 2.454 5.634 5.618 5.634 2.281 0 3.81-1.032 4.886-2.86l-2.239-1.225c-.645.903-1.334 1.548-2.669 1.548zm28.876-2.387c-.129 1.634-.452 2-1.012 2-.382 0-.562-.043-.824-.111l.014 2.76s.337.103.961.103c2.303 0 3.164-1.484 3.38-4.645l.258-3.72h3.056v8.214h2.712V23.075h-8.093l-.452 6.042zm-10.663-2.129c.388-1.204 1.464-2.15 2.885-2.15 1.506 0 2.518.817 2.776 2.15h-5.66zm2.97-4.214c-3.099 0-5.617 2.258-5.617 5.633 0 3.376 2.518 5.634 5.489 5.634 2.346 0 3.83-.882 4.907-2.71l-2.153-1.074c-.667.838-1.27 1.462-2.711 1.462-1.593 0-2.755-1.032-2.928-2.667h8.222v-.946c0-3.117-2.152-5.332-5.208-5.332zm20.403 4.214c.388-1.204 1.464-2.15 2.885-2.15 1.506 0 2.518.817 2.776 2.15h-5.66zm2.971-4.214c-3.1 0-5.618 2.258-5.618 5.633 0 3.376 2.518 5.634 5.489 5.634 2.346 0 3.831-.882 4.907-2.71l-2.152-1.074c-.668.838-1.27 1.462-2.712 1.462-1.593 0-2.755-1.032-2.927-2.667h8.222v-.946c0-3.117-2.153-5.332-5.209-5.332zM61.855 25.44h3.186v8.3h2.712v-8.3h3.185v-2.365h-9.083v2.365z" fill="#09121F"/><path fill-rule="evenodd" clip-rule="evenodd" d="M122.783 31.504c-1.593 0-3.078-1.14-3.078-3.097 0-1.956 1.485-3.096 3.078-3.096 1.593 0 3.078 1.14 3.078 3.096 0 1.957-1.485 3.097-3.078 3.097zm0-8.73c-2.927 0-5.833 1.892-5.833 5.633 0 3.742 2.906 5.634 5.833 5.634s5.833-1.892 5.833-5.634c0-3.741-2.906-5.633-5.833-5.633zm16.624.299l-2.944 7.47-2.943-7.47h-3.545v10.646h2.578v-6.74l2.858 6.74h2.105l2.857-6.74v6.74h2.579V23.073h-3.545z" fill="#09121F"/></svg>