<svg width="24" height="24" fill="none" xmlns="http://www.w3.org/2000/svg"><path fill-rule="evenodd" clip-rule="evenodd" d="M23 5a5 5 0 1 1-1.232-3.287l-3.934 3.62-2-2L14.5 4.666 17.834 8 22.7 3.29c.194.534.3 1.11.3 1.71zm-1 6l-.487-1.135a5.977 5.977 0 0 1-1.796.886l.107.249H4.177L6.32 6h5.763a6.036 6.036 0 0 1 0-2H6.32a2 2 0 0 0-1.84 1.212L2 11v10a1 1 0 0 0 1 1h1a1 1 0 0 0 1-1v-1h14v1a1 1 0 0 0 1 1h1a1 1 0 0 0 1-1V11zM4 13v5h16v-5H4zm2.5 4a1.5 1.5 0 1 1 0-3 1.5 1.5 0 0 1 0 3zm11 0a1.5 1.5 0 1 1 0-3 1.5 1.5 0 0 1 0 3z" fill="#E19292"/></svg>