<svg width="100" height="28" fill="none" xmlns="http://www.w3.org/2000/svg"><path fill-rule="evenodd" clip-rule="evenodd" d="M11.399 25.907l-6.428-6.218-4.19 4.145a1.292 1.292 0 0 0 1.029 2.073h9.589z" fill="#FF4F12"/><path fill-rule="evenodd" clip-rule="evenodd" d="M15.544 9.326L6.218 0 1.01 5.424A3.627 3.627 0 0 0 0 7.936v15.898c0 1.145.928 2.073 2.073 2.073a1.284 1.284 0 0 1-.907-2.194" fill="#7B61FF"/><path fill-rule="evenodd" clip-rule="evenodd" d="M82.007 16.152h-2.243l-2.68 2.71v-2.71h-1.896v7.466h1.897v-3.086l2.724 3.086h2.288l-3.522-4.004 3.432-3.462zM21.825 18.09h-2.74v-3.31h2.74c1.384 0 2.017.661 2.017 1.655 0 .993-.633 1.655-2.017 1.655zm.06-5.087h-4.786V23.54h1.986v-3.673h2.8c2.378 0 3.943-1.219 3.943-3.431 0-2.213-1.565-3.432-3.943-3.432zm8.428 9.05c-1.114 0-2.152-.798-2.152-2.168s1.038-2.167 2.152-2.167 2.152.797 2.152 2.167c0 1.37-1.038 2.168-2.152 2.168zm0-6.111c-2.047 0-4.079 1.324-4.079 3.943 0 2.62 2.032 3.944 4.08 3.944 2.046 0 4.078-1.325 4.078-3.944 0-2.619-2.032-3.943-4.079-3.943zm8.921 6.111c-1.144 0-1.987-.828-1.987-2.168 0-1.324.873-2.167 1.987-2.167.677 0 1.264.316 1.73 1.023l1.626-.933c-.541-1.16-1.716-1.866-3.341-1.866-2.122 0-3.928 1.565-3.928 3.943s1.715 3.944 3.928 3.944c1.595 0 2.664-.723 3.417-2.002l-1.566-.858c-.451.632-.933 1.084-1.866 1.084zm20.193-1.671c-.09 1.144-.316 1.4-.708 1.4a1.91 1.91 0 0 1-.576-.078l.01 1.932s.235.072.672.072c1.61 0 2.212-1.038 2.363-3.25l.18-2.605h2.138v5.75h1.896v-7.45h-5.66l-.315 4.229zm-7.457-1.49c.271-.843 1.024-1.505 2.017-1.505 1.054 0 1.761.572 1.942 1.505H51.97zm2.078-2.95c-2.168 0-3.929 1.58-3.929 3.943s1.761 3.944 3.838 3.944c1.64 0 2.68-.617 3.432-1.897l-1.505-.752c-.467.587-.888 1.023-1.897 1.023-1.113 0-1.926-.722-2.047-1.866h5.75v-.663c0-2.182-1.505-3.732-3.642-3.732zm14.267 2.95c.271-.843 1.024-1.505 2.017-1.505 1.054 0 1.761.572 1.942 1.505h-3.959zm2.077-2.95c-2.167 0-3.928 1.58-3.928 3.943s1.76 3.944 3.838 3.944c1.64 0 2.68-.617 3.432-1.897l-1.505-.752c-.467.587-.888 1.023-1.897 1.023-1.114 0-1.926-.722-2.047-1.866h5.75v-.663c0-2.182-1.505-3.732-3.643-3.732zm-27.136 1.866h2.227v5.81h1.897v-5.81h2.227v-1.656h-6.351v1.656z" fill="#09121F"/><path fill-rule="evenodd" clip-rule="evenodd" d="M85.862 22.053c-1.114 0-2.152-.798-2.152-2.168s1.038-2.167 2.152-2.167 2.153.797 2.153 2.167c0 1.37-1.039 2.168-2.153 2.168zm0-6.111c-2.047 0-4.079 1.324-4.079 3.943 0 2.62 2.032 3.944 4.08 3.944 2.046 0 4.078-1.325 4.078-3.944 0-2.619-2.032-3.943-4.079-3.943zm11.625.209l-2.058 5.228-2.058-5.228h-2.48v7.452h1.804v-4.718l1.998 4.718h1.472l1.998-4.718v4.718h1.803v-7.452h-2.479z" fill="#09121F"/></svg>