<svg width="24" height="24" fill="none" xmlns="http://www.w3.org/2000/svg"><path fill-rule="evenodd" clip-rule="evenodd" d="M2 12c0 5.523 4.477 10 10 10s10-4.477 10-10S17.523 2 12 2 2 6.477 2 12zm15.657 5.657A8 8 0 1 1 6.343 6.342a8 8 0 0 1 11.314 11.315zM8 12.13v1.357h1.102v1.163H8v1.26h1.102v1.59h1.568v-1.59h3.533v-1.26H10.67v-1.162h2.498c.06 0 .165-.003.315-.008.154-.005.324-.023.51-.053.9-.134 1.577-.495 2.032-1.08.455-.59.683-1.322.683-2.197 0-.58-.1-1.107-.3-1.582-.2-.48-.503-.878-.908-1.193-.4-.315-.902-.52-1.508-.615a4.015 4.015 0 0 0-.51-.052c-.15-.005-.255-.008-.314-.008H9.102v5.43H8zm2.67 0h2.438c.08 0 .177-.003.292-.008.12-.01.248-.034.383-.075.46-.115.795-.342 1.005-.682.214-.34.322-.732.322-1.178 0-.274-.045-.544-.135-.81a1.747 1.747 0 0 0-.42-.704c-.19-.205-.447-.345-.772-.42a1.649 1.649 0 0 0-.383-.06 4.175 4.175 0 0 0-.293-.015H10.67v3.952z" fill="#E19292"/></svg>